<?xml version="1.0" encoding="UTF-8"?>
<svg id="_图层_1" data-name="图层 1" xmlns="http://www.w3.org/2000/svg" viewBox="0 0 338.2247 134.7471">
  <defs>
    <style>
      .cls-1 {
        fill: #D7D7FF;
      }

      .cls-1, .cls-2 {
        stroke-width: 0px;
      }

      .cls-2 {
        fill: #fff;
      }
    </style>
  </defs>
  <path class="cls-2" d="m334.6143,89.8902c-7.2926-13.6454-22.711-21.307-36.0834-29.1662-14.652-8.6113-75.1315-51.6495-93.2811-56.1444C186.8168.0143,187.0184-.0426,177.8126.0078c-9.7597.0535-19.3951,2.8315-28.8862,5.0182-9.1764,2.1142-18.479,3.7392-27.7604,5.6231-9.8089,1.9909-18.812,4.6487-28.2487,7.8168-8.778,2.9469-17.4889,5.5866-26.1654,8.7867-9.3437,3.4461-18.4716,7.2509-27.7278,10.8667-3.2858,1.2836-11.4236,2.5557-13.7599,5.0062L0,52.2768l4.9996,7.9898s113.6385,33.9126,149.6038,44.5561c8.5484,2.5298,17.0458,4.9876,25.4124,7.5922,8.0129,2.4946,16.2575,4.3033,23.9932,7.1022,8.4405,3.0538,16.7264,6.1005,25.2502,8.5622,4.0132,1.159,8.0022,2.3168,11.9248,3.6091,3.2553,1.0724,9.4982,1.8766,8.2199,1.5414,5.0736,1.0128,15.6139,1.4221,21.6093,1.5144,5.9741.0919,21.5669-1.9616,28.7391-3.3649,7.6262-1.4921,15.3949-2.8184,22.7322-5.9135,5.938-2.5048,12.998-6.9484,14.8194-13.4265,2.0142-7.1639.5481-16.091-2.6896-22.1491Z"/>
  <path class="cls-1" d="m42.9496,66.8763c-.4536-2.1096-.3329-4.6149-2.2236-5.7878-1.7434-1.0816-5.7167.6988-5.3473-2.5777,1.9011.1722,3.7921.3434,5.859.5307-.66-4.6676-3.648-13.1459-1.9602-17.5042,1.6316,3.8672,1.5541,8.9993,2.1093,13.0397.7929,5.7697,2.5923,4.7395,8.5938,5.3413,9.3213.9346,18.5834,1.8954,27.7895,2.8748,1.9699.2096,3.9668.483,5.9354.6074,3.1053.1963,2.3235.545,2.7711-1.6808.7441-3.7005-1.0535-9.2006-1.4654-13.1487-.4858-4.6572-1.0613-9.3619-1.4459-14.0838-.3244-3.9822.1566-4.1112,4.0698-4.8067.0609.7535.1263,1.5615.1919,2.3733-.7668.0869-1.4572-.1921-2.0714-.8374.3721,16.0269,2.7057,33.1585,6.3126,48.2072.597-.3656,1.0164-.6225,1.774-1.0864.1052,1.6708.1892,3.0052.2684,4.2623-4.0806.9089-4.6265-3.9601-5.0812-6.404-.3342-1.7962-.3917-6.4323-1.6032-7.7928-1.3785-1.548-4.8717-1.3725-6.8966-1.6496-12.2486-1.6765-25.2516-4.8158-37.7408-5.2498l1.2822,5.9604c-.2127.0826-.568.2784-.6137.2286-.2156-.235-.3466-.5373-.5078-.8158Zm71.2586-.6806c-4.7845-.4581-9.5872-.8738-14.402-1.3291-1.8665-.1765-7.3118-1.5905-8.2534-.0955-2.2413,3.5587,3.2455,4.0441,5.2387,4.2647,4.7827.5293,9.5317,1.4192,14.2791,2.0311,9.6508,1.2439,19.2387,2.4618,28.7613,3.6794-8.4033-3.6772-16.2198-7.6503-25.6237-8.5506Zm-42.8971-20.1319c-1.3792,1.5534.5528,10.3498,1.2251,12.2827,1.0393,2.9878.1631,2.1743,3.3076,2.8792,1.1684.2619,4.416.9418,5.205-.1569,1.5108-2.1036-1.2078-11.4656-1.529-14.1404-.4367-2.495-6.9517-2.2804-8.2088-.8646Zm-5.4937.3377c-4.1074.5627-2.9521,4.3613-2.5699,7.4186.1811,1.4485-.0692,5.1381,1.1774,6.1753.7113.5918,4.9718,1.0405,5.7076.5831,1.7254-1.0728-.3877-8.4561-.6347-10.3912-.4858-2.6766-.5893-4.2092-3.6803-3.7858Zm-4.9306,13.5128c2.5937-.7009.9264-4.8289.6196-7.2619-.2831-2.245-.398-6.0117-4.0249-5.5143-3.6031.4942-1.2536,6.9091-.9196,9.4805.4001,2.1091,1.5501,4.0456,4.3249,3.2957Zm-6.4432-9.2146c-.2739-1.9218-1.3901-4.6349-3.9962-2.9426-1.8753,1.2178-.1632,6.3893.3426,8.3504.4141,1.6054,1.1393,4.1722,3.7293,3.2705,2.0369-.7091.2679-6.7406.0432-8.684-.0396.0019-.0793.0038-.1189.0057Zm41.8318-12.5393c-.8452,2.9403.5281,8.0887.9489,11.1801.5097,3.7442,2.1209,3.8876,2.8765.5916.7234-3.1556-.6378-8.331-.8904-11.6028-.5761-3.3959-2.3089-2.347-2.935-.169Zm-48.3529,20.6468c3.6943.6275,2.0542-11.0295-1.3372-10.6281-3.1825.3767-1.8028,10.0947,1.3372,10.6281Zm-4.5641-2.5664c.0481.225.6237,3.337,1.7143,1.8717.6869-.9229-.5637-5.1272-.7802-6.3477-.0748-.4214-.6159-4.8227-1.8896-2.5474-.7692,1.3741.726,5.4641.9828,7.0211-.0091.0007-.0181.0015-.0272.0022Zm-8.4966,3.9181c-.1377-1.766-1.8299-2.5318-2.3884-4.54-.9568-3.4401-1.3666-7.1189-2.1469-10.6409-.3201,2.2187,1.4921,15.6936,4.5353,15.1809Zm53.5546-16.1747c.2625,3.4066,1.0105,6.7613,1.709,10.1029-.3318-3.3675-.6651-6.751-1-10.1505-.2363.0159-.4726.0317-.709.0476Zm50.2056,1.9187c-2.1541,2.6338-5.2625,3.2978-3.1529,5.9129,5.7542-3.1758,8.1271-10.5645,4.4548-13.8607,1.0356,2.5878.8315,5.3393-1.3019,7.9478Zm2.2626,9.035c-1.7618-.3417-2.375-.7115-1.5073-1.8978,3.293-4.5026,4.4383-9.071,3.3161-13.6567,2.5819,5.0625.7276,10.2525-1.8088,15.5546Zm-9.4396-12.4858c6.6967.3942,8.6948-3.8792,2.1372-4.3015,9.8978-5.272,1.8513,13.8607-2.1372,4.3015Zm12.1826,12.1853c.544-2.7241,1.09-5.4577,1.6378-8.2008.6032,2.7.555,5.4132-.8078,8.1582-.2766.0142-.5533.0284-.83.0426Zm151.8676,25.5258c10.2834-3.3004,20.9877-5.2274,29.9943.0211-1.7077-4.2001-10.9947-4.1003-14.8719-3.9668-3.7044.1276-7.4149.7612-11.033,1.8814-.1915.0367-.7153.2035-1.8743.6301-.3139.113-.6269.2299-.9389.3503-.1214.0458-.2446.0923-.3757.1422-5.032,1.9111-42.1931,14.0994-33.9806,50.751,0,0,2.3023,4.186,11.0671,4.719,2.3773-.1109,5.4181-.3827,8.6503-.7422-.4908-.0402-1.3563-.0714-2.7379-.0894-.4459-.0058-8.9727.8434-14.0109-2.994-5.0821-3.8709-6.3408-37.7983,30.1116-50.7027Zm-182.865-28.9973c.2982.8951.6449,1.5266,1.0423,1.8943.4028.3731.8886.5873,1.4634.6398.2573.0235.5007-.0012.7306-.0739.232-.0734.4324-.18.6003-.32l-.2365-2.1837c-.3826.3066-.8121.4453-1.286.4213-.3555-.018-.6503-.1487-.8865-.3908-.2347-.2397-.4344-.6554-.6006-1.2469-.1656-.5899-.3098-1.4228-.4326-2.5014-.1168-1.0256-.1593-1.8448-.1268-2.4574.0325-.6159.1402-1.0671.3241-1.3506.1857-.2862.455-.4506.8104-.4902.4468-.0498.8795.0527,1.2954.3098l-.2502-2.3075c-.3969-.2203-.8501-.2904-1.3556-.212-.8484.1315-1.4221.72-1.7365,1.7522-.3077,1.0109-.3313,2.6117-.0765,4.8047.1844,1.587.4243,2.821.7213,3.7124Zm8.5586,2.8941l1.6975.1495-2.5459-5.5231c.4238-.2678.7159-.7326.8715-1.3969.1576-.6711.1801-1.5953.066-2.774-.1051-1.0867-.2862-1.9498-.5414-2.5848-.2545-.6316-.5926-1.0674-1.0121-1.307-.4139-.2367-.9261-.3083-1.5296-.2169l-2.0443.3095,1.383,13.0218,1.2612.1111-.5049-4.8705.7614.0015,2.1374,5.0799Zm-3.1092-7.1104l-.436-4.2061.593-.0656c.352-.039.6338-.0126.8438.079.2115.093.3798.2824.5035.5681.1244.2863.2156.7191.273,1.2954.0627.6296.0623,1.1056-.0007,1.4297-.0624.3226-.1881.5475-.376.6734-.1865.1258-.4563.1936-.808.2058l-.5926.0204Zm11.2674-8.231l-1.8472.2796.5089,6.1025-3.4611.1985-.5218-5.7752-1.5798.2391,1.3587,14.5272,1.5678.1381-.5955-6.5904,3.4552-.0571.5796,6.9504,1.8241.1607-1.2889-16.1736ZM206.79,5.0256c-4.279-.4863-8.8368-.7393-13.7126-.6703-11.1731.1581-27.5585,2.7878-33.7712,6.4496-5.4388,3.2056-10.8567,7.7192-12.9579,13.8211-2.8752,8.3495,3.5965,11.928,10.5193,14.4952,15.7794,5.8516,32.9589,7.6689,45.286,7.4291,11.8177-.2299,33.9719-2.7596,54.9388-12.9048-19.332-12.5594-40.0402-25.3246-50.3023-28.6199Z"/>
</svg>